# xmcd
#
# Track frame offsets: 
#        150
#        17460
#        34180
#        51825
#        74902
#        92557
#        106235
#        125800
#        147432
#        161310
#        175000
#        200175
#
# Disc length: 3670 seconds
#
# Revision: 6
# Processed by: cddbd v1.5.2PL0 Copyright (c) Steve Scherf et al.
# Submitted via: ExactAudioCopy v0.99pb5
#
DISCID=ab0e540c
DTITLE=Kenny Neal - Blues Fallin' Down Like Rain
DYEAR=1998
DGENRE=Blues
TTITLE0=Big Boss Man
TTITLE1=Shadow On the Moon
TTITLE2=My Babe
TTITLE3=The Things I Used To Do
TTITLE4=Someday
TTITLE5=Just A Matter Of Time
TTITLE6=Blues Fallin' Down Like Rain
TTITLE7=I'm Ready
TTITLE8=Full-Time Fool
TTITLE9=Strike While The Iron Is Hot
TTITLE10=Can't Say I Didn't Try
TTITLE11=Data Track 12
EXTD=YEAR: 1998
EXTT0=
EXTT1=
EXTT2=
EXTT3=
EXTT4=
EXTT5=
EXTT6=
EXTT7=
EXTT8=
EXTT9=
EXTT10=
EXTT11=
PLAYORDER=
